<?xml version="1.0" standalone="no"?><!DOCTYPE svg PUBLIC "-//W3C//DTD SVG 1.1//EN" "http://www.w3.org/Graphics/SVG/1.1/DTD/svg11.dtd"><svg t="1507824398240" class="icon" style="" viewBox="0 0 1024 1024" version="1.1" xmlns="http://www.w3.org/2000/svg" p-id="1561" xmlns:xlink="http://www.w3.org/1999/xlink" width="200" height="200"><defs><style type="text/css"></style></defs><path d="M574.373071 893.934712c0 35.229362-28.568662 63.797002-63.802118 63.797002-35.229362 0-63.795978-28.567639-63.795978-63.797002l0-318.985008-318.985008 0c-35.234479 0-63.795978-28.565593-63.795978-63.802118 0-35.228339 28.562523-63.794955 63.795978-63.794955l318.985008 0 0-318.985008c0-35.234479 28.565593-63.795978 63.795978-63.795978 35.233456 0 63.802118 28.566616 63.802118 63.795978l0 318.985008 318.985008 0c35.227316 0 63.793932 28.566616 63.793932 63.794955 0 35.236526-28.566616 63.802118-63.793932 63.802118l-318.985008 0L574.373071 893.934712 574.373071 893.934712z" p-id="1562" fill="#000000"></path></svg>