<?xml version="1.0" standalone="no"?><!DOCTYPE svg PUBLIC "-//W3C//DTD SVG 1.1//EN" "http://www.w3.org/Graphics/SVG/1.1/DTD/svg11.dtd"><svg t="1507428619984" class="icon" style="" viewBox="0 0 1024 1024" version="1.1" xmlns="http://www.w3.org/2000/svg" p-id="3532" xmlns:xlink="http://www.w3.org/1999/xlink" width="200" height="200"><defs><style type="text/css"></style></defs><path d="M330.44 727.39c-7.686 0-15.339-2.905-21.213-8.779-11.715-11.715-11.715-30.71 0-42.425l363.331-366.174c11.715-11.715 30.679-11.715 42.394 0s11.715 30.71 0 42.425L351.621 718.611c-5.811 5.873-13.496 8.779-21.181 8.779z m147.707-72.666c9.904 43.706-0.781 86.6-34.553 120.371l-121.12 117.372c-25.493 25.493-59.358 39.519-95.441 39.519-36.052 0-69.948-14.027-95.409-39.519-52.61-52.641-52.61-138.272-0.312-190.569L249.621 579.84c25.493-25.492 59.389-39.551 95.441-39.551 12.34 0 24.18 2.218 35.77 5.405l46.83-46.83c-26.118-12.216-54.328-18.557-82.601-18.557-49.892 0-99.783 19.026-137.866 57.108L89.167 659.192c-76.134 76.134-76.134 199.536 0 275.701 38.051 38.082 87.943 57.077 137.835 57.077 49.892 0 99.783-18.995 137.835-57.077l120.871-117.122c58.202-58.202 70.823-139.365 39.957-210.594l-47.517 47.548zM934.826 89.108C896.744 51.026 846.883 32 796.991 32s-99.815 19.026-137.866 57.108l-120.84 117.091c-60.357 60.357-72.667 150.394-37.301 223.091l46.549-46.518c-13.777-46.018-3.218-97.784 32.865-133.867l121.12-117.372c25.493-25.462 59.358-39.519 95.441-39.519 36.021 0 69.948 14.059 95.441 39.519 52.61 52.641 52.61 138.272 0.281 190.6l-121.12 121.12c-25.493 25.493-59.389 39.519-95.441 39.519-9.185 0-17.276 0.906-26.086-0.875l-47.768 47.798c23.868 9.904 48.392 13.058 73.853 13.058 49.892 0 99.752-19.026 137.835-57.108l120.84-120.84c76.165-76.134 76.165-199.567 0.031-275.701z" fill="#515151" p-id="3533"></path></svg>