<?xml version='1.0' encoding='utf-8'?>
<svg xmlns="http://www.w3.org/2000/svg" version="1.1" id="Layer_1" x="0px" y="0px" viewBox="0 0 2631.049 752.781" enable-background="new 0 0 2631.049 752.781"> <g> <g> <g> <path fill="none" stroke="#000000" stroke-width="7.9169" stroke-linecap="round" stroke-linejoin="round" stroke-miterlimit="10" d=" M35.525,510.306h149.373l21.684-65.05l20.479,65.05h21.683l9.637,30.116l24.093-414.39l36.139,584.241l19.274-199.967 l51.798-1.205c0,0,43.366-60.231,91.551,0l74.687-1.205l25.297-62.641l20.479,60.231l20.479,2.409l8.432,31.32l27.707-403.548 l34.934,574.604l18.069-202.376l59.026,2.409c2.143-0.194,40.914-60.475,89.142-1.205l139.736-1.205"/> </g> </g> <g> <g> <path fill="none" stroke="#000000" stroke-width="7.9169" stroke-linecap="round" stroke-linejoin="round" stroke-miterlimit="10" d=" M1631.827,503.428H1781.2l21.683-65.05l20.479,65.05h21.683l9.637,30.116l24.093-414.39l36.139,584.241l19.274-199.967 l51.798-1.205c0,0,43.366-60.231,91.551,0l74.687-1.205l25.297-62.641L2198,498.608l20.479,2.409l8.432,31.32l27.707-403.548 l34.934,574.604l18.069-202.376l59.027,2.409c2.143-0.194,40.914-60.475,89.142-1.205l139.736-1.205"/> </g> </g> <path fill="none" stroke="#000000" stroke-width="7.9169" stroke-linecap="round" stroke-linejoin="round" stroke-miterlimit="10" d=" M1157.613,503.631c-10.025-9.666-18.971-20.472-26.999-31.837c-3.893-5.511-1.2-12.635,2.021-17.934 c3.46-5.692,7.697-10.496,8.958-17.242c1.443-7.718-0.184-15.828-2.356-23.254c-5.258,1.706-9.832,4.918-14.82,7.223 c-3.129,1.446-6.46,2.433-9.786,3.313c-11.092,2.936-22.302,5.335-33.351,8.468c-10.291,2.918-20.911,6.706-28.724,14.322 c-7.599,7.408-13.156,17.657-18.086,26.953c-2.397,4.521-4.631,9.13-6.574,13.865c-2.171,5.292-3.119,10.666-4.729,16.104 L1157.613,503.631z"/> <path fill="none" stroke="#000000" stroke-width="7.9169" stroke-linecap="round" stroke-linejoin="round" stroke-miterlimit="10" d=" M1340.117,503.376c-0.686-8.716,0.105-16.633,1.689-25.342c3.167-13.459,8.708-24.542,11.083-38.001 c1.583-10.292,2.375-19.792,0-29.292c-0.792-1.583-2.375-0.792-3.958-0.792c-2.375,0.792-3.958,1.583-6.333,1.583 c-13.459,0.792-26.917,1.583-40.376,2.375c-15.042,1.583-29.292,6.333-44.334,7.125c-15.834,0.792-31.667,3.958-42.751,15.834 c-8.708,9.5-19,17.417-27.709,26.917c-3.167,3.958-7.125,7.917-5.542,12.667c2.375,5.542,7.917,8.709,11.875,12.667 c4.75,3.167,8.708,7.125,12.667,11.084c1.583,1.583,3.167,2.375,4.865,3.414L1340.117,503.376z"/> <path fill="none" stroke="#000000" stroke-width="7.9169" stroke-linecap="round" stroke-linejoin="round" stroke-miterlimit="10" d=" M1575.226,503.276c-7.793-7.057-15.283-14.275-24.356-19.701c-8.915-5.331-18.456-9.563-27.073-15.399 c-15.346-10.393-26.909-26.771-44.356-34.059c-9.59-4.007-20.254-3.784-30.05-7.065c-4.061-1.36-7.537-3.812-11.488-5.357 c-3.318-1.297-6.981-0.17-10.331,0.546c-9.173,1.96-17.689,5.903-25.615,10.885c-8.201,5.155-13.24,14.743-17.128,23.296 c-5.863,12.898-9.684,26.573-13.691,40.125c-0.41,1.385-2.724,6.586-1.17,7.083L1575.226,503.276z"/> <path fill="none" stroke="#000000" stroke-width="7.9169" stroke-linecap="round" stroke-linejoin="round" stroke-miterlimit="10" d=" M999.222,507.895c-4.174-6.109-5.758-14.026-4.966-21.151c3.167-18.209,13.459-32.459,21.375-49.085 c3.167-7.125,5.542-15.042,7.917-22.167c3.167-7.125,7.917-13.459,10.292-20.584c0.792-1.583,2.375-2.375,3.958-3.167 c25.334-11.084,48.293-30.876,52.251-60.168c0-0.792,1.583-2.375,1.583-3.167c2.375-10.292,4.75-20.584,11.875-29.292 c1.583-1.583,2.375-3.958,3.167-5.542c3.958-5.542,8.708-10.292,11.875-15.834c-1.583-9.5-6.333-17.417-12.667-25.334 c-4.75-4.75-7.917-10.292-13.459-14.25c-8.708-7.125-16.625-13.459-25.334-20.584c-8.709-7.125-15.042-15.834-19.792-25.334 c-0.792-0.792-1.583-1.583-2.375-2.375c-5.542-10.292-8.709-21.376-10.292-33.251c-1.583-19.792,3.167-38.001,5.542-57.793 c0.792-4.75,0-11.084-3.958-15.042c-3.167-3.958-7.125-7.125-10.292-11.084c-1.583-2.375-1.583-3.958-3.167-6.333 c-0.792-0.792-1.583-1.583-2.375-2.375c-2.375-5.542-5.542-11.875-2.375-18.209c0.792-2.375,3.958-2.375,5.542-3.167 c12.667-0.792,25.334,3.167,35.626,11.084c10.292,8.709,18.209,19.792,19.792,33.251c1.583,17.417-3.958,33.251-9.5,49.876 c0,1.583,0,2.375,0,3.958c-3.167,9.5-3.167,19.792,0,29.292c0.792,1.583,1.583,3.167,2.375,5.542 c10.292,19,30.876,26.126,49.084,34.042c3.958,2.375,7.917,4.75,11.875,7.125c14.25,8.709,24.542,19.792,38.793,27.709 c8.709,3.958,19,6.333,28.501,6.333c30.084-0.792,60.168-5.542,91.044-3.167c30.876,2.375,60.96,9.5,91.044,16.625 c13.459,0,26.917-0.792,41.168-3.167c9.5-1.583,19,0.792,27.709,4.75c20.584,8.709,42.751,7.917,64.127,3.167 c21.375,0,46.709-1.583,60.168-20.584c7.125,3.958,3.167,12.667-0.816,17.508c3.218-2.6,3.115-3.967,0,0 c3.218-2.6,7.644-2.714,11.329-4.313c2.453-1.064,3.84-2.851,5.619-4.717c1.551,6.97-4.59,11.384-5.129,17.872 c-0.711,3.734,1.664,6.901,4.039,10.067c5.542,6.333,12.667,11.084,15.834,18.209c3.958,10.292,3.167,21.376,7.125,31.667 c0.792,1.583,0,3.958,0.219,5.467c0.188-0.001,0.376-0.006,0.564,0c-1.574,0.867-2.366,2.45-3.949,4.034 c-4.75,3.958-10.292,7.917-15.834,10.292c-4.75,1.583-10.292,1.583-15.834,1.583c-7.125-0.792-13.459,1.583-20.584,0 c-9.5-3.167-19-0.792-27.709,3.958c-1.583,1.583-0.792,3.958-0.792,6.333c1.583,14.25,8.708,27.709,7.125,41.959 c3.167,10.292,8.709,19,15.834,26.917c0.792,0.792,0.792,2.375,1.583,3.167c3.958,4.75,7.917,7.917,11.875,12.667 c10.292,10.292,21.376,19,31.667,30.084c5.542,4.75,10.292,9.5,15.834,14.25c1.583,1.583,3.167,2.375,4.75,3.167 s3.958,1.583,5.542,2.375c3.167,0.792,5.542,1.583,8.397,2.434h94.786"/> </g> </svg>