<?xml version="1.0" standalone="no"?><!DOCTYPE svg PUBLIC "-//W3C//DTD SVG 1.1//EN" "http://www.w3.org/Graphics/SVG/1.1/DTD/svg11.dtd"><svg t="1507428647632" class="icon" style="" viewBox="0 0 1024 1024" version="1.1" xmlns="http://www.w3.org/2000/svg" p-id="3729" xmlns:xlink="http://www.w3.org/1999/xlink" width="200" height="200"><defs><style type="text/css"></style></defs><path d="M1012.07609 476.826L563.00009 33.48c-2.268-2.699-7.004-7.092-13.619-11.459-11.847-7.803-24.438-11.776-37.422-11.776-13.957 0-26.864 4.01-38.374 11.884-7.63 5.248-11.705 9.968-13.46 12.308L11.89809 476.861A39.5 39.5 0 0 0 0.00009 505.201c0 10.675 4.224 20.746 11.899 28.303 14.116 14.008 34.724 10.004 54.354-9.329l30.131-29.793L513.22009 90.62l2.534 2.483 441.984 434.586c13.548 8.862 25.713 13.583 35.574 13.583 7.342 0 13.48-2.555 18.765-7.767a39.629 39.629 0 0 0 11.914-28.303 39.552 39.552 0 0 0-11.914-28.375z" p-id="3730"></path><path d="M844.56009 453.914c-18.514 0-33.66 14.935-33.767 33.27v413.593c0 22.59-18.621 40.965-41.533 40.965H666.29609V711.2c0-56.679-46.638-102.784-103.971-102.784h-100.69c-57.334 0-103.972 46.105-103.972 102.784v230.543H254.70009c-22.912 0-41.575-18.37-41.575-40.965V487.286c-0.036-18.407-15.145-33.378-33.694-33.378-18.535 0-33.68 14.966-33.731 33.337v418.488c0 56.679 46.638 102.79 103.972 102.79h175.406V716.195c0-22.559 18.657-40.894 41.574-40.894h90.675c22.933 0 41.554 18.335 41.554 40.894v292.326h175.422c57.318 0 103.992-46.11 103.992-102.789V487.22c-0.148-18.34-15.257-33.305-33.736-33.305z" p-id="3731"></path></svg>